<mxfile host="app.diagrams.net" modified="2024-04-17T12:00:33.161Z" agent="Mozilla/5.0 (Windows NT 10.0; Win64; x64) AppleWebKit/537.36 (KHTML, like Gecko) Chrome/123.0.0.0 Safari/537.36" etag="gZkuuVa4kfx8mZbiYrKV" version="24.2.3" type="github">
  <diagram name="Pagina-1" id="YYRBDbeNr-HkOudGB8Iu">
    <mxGraphModel dx="2032" dy="746" grid="0" gridSize="10" guides="1" tooltips="1" connect="1" arrows="1" fold="1" page="0" pageScale="1" pageWidth="827" pageHeight="1169" math="0" shadow="0">
      <root>
        <mxCell id="0" />
        <mxCell id="1" parent="0" />
        <mxCell id="rlhBUZmAT8BfPZjBoUgw-25" value="" style="group" vertex="1" connectable="0" parent="1">
          <mxGeometry x="-780" y="80" width="760" height="280" as="geometry" />
        </mxCell>
        <mxCell id="rlhBUZmAT8BfPZjBoUgw-12" value="Application" style="swimlane;fontStyle=0;childLayout=stackLayout;horizontal=1;startSize=30;horizontalStack=0;resizeParent=1;resizeParentMax=0;resizeLast=0;collapsible=1;marginBottom=0;whiteSpace=wrap;html=1;" vertex="1" parent="rlhBUZmAT8BfPZjBoUgw-25">
          <mxGeometry width="253.33333333333334" height="217.5" as="geometry">
            <mxRectangle width="90" height="30" as="alternateBounds" />
          </mxGeometry>
        </mxCell>
        <mxCell id="rlhBUZmAT8BfPZjBoUgw-13" value="Human Interface aka get user input and return output (shell?)" style="text;strokeColor=none;fillColor=none;align=left;verticalAlign=middle;spacingLeft=4;spacingRight=4;overflow=hidden;points=[[0,0.5],[1,0.5]];portConstraint=eastwest;rotatable=0;whiteSpace=wrap;html=1;" vertex="1" parent="rlhBUZmAT8BfPZjBoUgw-12">
          <mxGeometry y="30" width="253.33333333333334" height="62.50000000000001" as="geometry" />
        </mxCell>
        <mxCell id="rlhBUZmAT8BfPZjBoUgw-41" value="Uart" style="text;strokeColor=none;fillColor=none;align=left;verticalAlign=middle;spacingLeft=4;spacingRight=4;overflow=hidden;points=[[0,0.5],[1,0.5]];portConstraint=eastwest;rotatable=0;whiteSpace=wrap;html=1;" vertex="1" parent="rlhBUZmAT8BfPZjBoUgw-12">
          <mxGeometry y="92.5" width="253.33333333333334" height="62.50000000000001" as="geometry" />
        </mxCell>
        <mxCell id="rlhBUZmAT8BfPZjBoUgw-44" value="PS/2" style="text;strokeColor=none;fillColor=none;align=left;verticalAlign=middle;spacingLeft=4;spacingRight=4;overflow=hidden;points=[[0,0.5],[1,0.5]];portConstraint=eastwest;rotatable=0;whiteSpace=wrap;html=1;" vertex="1" parent="rlhBUZmAT8BfPZjBoUgw-12">
          <mxGeometry y="155" width="253.33333333333334" height="62.50000000000001" as="geometry" />
        </mxCell>
        <mxCell id="rlhBUZmAT8BfPZjBoUgw-16" value="Buisness" style="swimlane;fontStyle=0;childLayout=stackLayout;horizontal=1;startSize=30;horizontalStack=0;resizeParent=1;resizeParentMax=0;resizeLast=0;collapsible=1;marginBottom=0;whiteSpace=wrap;html=1;" vertex="1" parent="rlhBUZmAT8BfPZjBoUgw-25">
          <mxGeometry x="253.33" width="253.33" height="92.5" as="geometry">
            <mxRectangle x="253.33333333333334" width="100" height="30" as="alternateBounds" />
          </mxGeometry>
        </mxCell>
        <mxCell id="rlhBUZmAT8BfPZjBoUgw-38" value="Parser (Parse tree)&lt;div&gt;&lt;span style=&quot;white-space: pre;&quot;&gt;&#x9;&lt;/span&gt;Lexical analysis -&amp;gt; tokens&lt;/div&gt;&lt;div&gt;&lt;span style=&quot;white-space: pre;&quot;&gt;&#x9;&lt;/span&gt;Syntac&lt;span style=&quot;background-color: initial;&quot;&gt;tic Analysis&lt;/span&gt;&lt;/div&gt;" style="text;strokeColor=none;fillColor=none;align=left;verticalAlign=middle;spacingLeft=4;spacingRight=4;overflow=hidden;points=[[0,0.5],[1,0.5]];portConstraint=eastwest;rotatable=0;whiteSpace=wrap;html=1;" vertex="1" parent="rlhBUZmAT8BfPZjBoUgw-16">
          <mxGeometry y="30" width="253.33" height="62.50000000000001" as="geometry" />
        </mxCell>
        <mxCell id="rlhBUZmAT8BfPZjBoUgw-21" value="Low-level API" style="swimlane;fontStyle=0;childLayout=stackLayout;horizontal=1;startSize=30;horizontalStack=0;resizeParent=1;resizeParentMax=0;resizeLast=0;collapsible=1;marginBottom=0;whiteSpace=wrap;html=1;" vertex="1" parent="rlhBUZmAT8BfPZjBoUgw-25">
          <mxGeometry x="506.6666666666667" width="253.33333333333334" height="92.5" as="geometry">
            <mxRectangle x="506.6666666666667" width="90" height="30" as="alternateBounds" />
          </mxGeometry>
        </mxCell>
        <mxCell id="rlhBUZmAT8BfPZjBoUgw-24" value="Item 3" style="text;strokeColor=none;fillColor=none;align=left;verticalAlign=middle;spacingLeft=4;spacingRight=4;overflow=hidden;points=[[0,0.5],[1,0.5]];portConstraint=eastwest;rotatable=0;whiteSpace=wrap;html=1;" vertex="1" parent="rlhBUZmAT8BfPZjBoUgw-21">
          <mxGeometry y="30" width="253.33333333333334" height="62.50000000000001" as="geometry" />
        </mxCell>
        <mxCell id="rlhBUZmAT8BfPZjBoUgw-45" value="" style="endArrow=none;html=1;rounded=0;" edge="1" parent="1">
          <mxGeometry width="50" height="50" relative="1" as="geometry">
            <mxPoint x="897" y="80" as="sourcePoint" />
            <mxPoint x="1658.6666666666667" y="80" as="targetPoint" />
          </mxGeometry>
        </mxCell>
        <mxCell id="rlhBUZmAT8BfPZjBoUgw-46" value="" style="endArrow=none;html=1;rounded=0;" edge="1" parent="1">
          <mxGeometry width="50" height="50" relative="1" as="geometry">
            <mxPoint x="897" y="320" as="sourcePoint" />
            <mxPoint x="1658.6666666666667" y="320" as="targetPoint" />
          </mxGeometry>
        </mxCell>
        <mxCell id="rlhBUZmAT8BfPZjBoUgw-47" value="User input" style="text;html=1;align=center;verticalAlign=middle;whiteSpace=wrap;rounded=0;" vertex="1" parent="1">
          <mxGeometry x="827" y="10" width="60" height="60" as="geometry" />
        </mxCell>
        <mxCell id="rlhBUZmAT8BfPZjBoUgw-52" style="edgeStyle=orthogonalEdgeStyle;rounded=0;orthogonalLoop=1;jettySize=auto;html=1;" edge="1" parent="1" source="rlhBUZmAT8BfPZjBoUgw-49">
          <mxGeometry relative="1" as="geometry">
            <mxPoint x="1080" y="40" as="targetPoint" />
          </mxGeometry>
        </mxCell>
        <mxCell id="rlhBUZmAT8BfPZjBoUgw-49" value="Script in script.txt" style="rounded=0;whiteSpace=wrap;html=1;" vertex="1" parent="1">
          <mxGeometry x="897" y="10" width="120" height="60" as="geometry" />
        </mxCell>
        <mxCell id="rlhBUZmAT8BfPZjBoUgw-50" value="" style="group" vertex="1" connectable="0" parent="1">
          <mxGeometry x="-780" width="760" height="80" as="geometry" />
        </mxCell>
        <mxCell id="rlhBUZmAT8BfPZjBoUgw-1" value="High Level Design Software Ontwikkeling" style="rounded=0;whiteSpace=wrap;html=1;" vertex="1" parent="rlhBUZmAT8BfPZjBoUgw-50">
          <mxGeometry y="20" width="760" height="60" as="geometry" />
        </mxCell>
        <mxCell id="rlhBUZmAT8BfPZjBoUgw-37" value="Actor" style="shape=umlActor;verticalLabelPosition=bottom;verticalAlign=top;html=1;outlineConnect=0;fontColor=none;noLabel=1;" vertex="1" parent="rlhBUZmAT8BfPZjBoUgw-50">
          <mxGeometry x="10" width="10" height="20" as="geometry" />
        </mxCell>
        <mxCell id="rlhBUZmAT8BfPZjBoUgw-54" style="edgeStyle=orthogonalEdgeStyle;rounded=0;orthogonalLoop=1;jettySize=auto;html=1;" edge="1" parent="1" source="rlhBUZmAT8BfPZjBoUgw-53" target="rlhBUZmAT8BfPZjBoUgw-55">
          <mxGeometry relative="1" as="geometry">
            <mxPoint x="1300" y="40" as="targetPoint" />
          </mxGeometry>
        </mxCell>
        <mxCell id="rlhBUZmAT8BfPZjBoUgw-53" value="*.exe/ *.py Uart transmitter" style="rounded=0;whiteSpace=wrap;html=1;" vertex="1" parent="1">
          <mxGeometry x="1080" y="10" width="120" height="60" as="geometry" />
        </mxCell>
        <mxCell id="rlhBUZmAT8BfPZjBoUgw-58" value="" style="edgeStyle=orthogonalEdgeStyle;rounded=0;orthogonalLoop=1;jettySize=auto;html=1;fillColor=#d5e8d4;strokeColor=#82b366;strokeWidth=2;" edge="1" parent="1" source="rlhBUZmAT8BfPZjBoUgw-55">
          <mxGeometry relative="1" as="geometry">
            <mxPoint x="1650" y="40" as="targetPoint" />
          </mxGeometry>
        </mxCell>
        <mxCell id="rlhBUZmAT8BfPZjBoUgw-55" value="Serial connection" style="rounded=0;whiteSpace=wrap;html=1;" vertex="1" parent="1">
          <mxGeometry x="1260" y="10" width="120" height="60" as="geometry" />
        </mxCell>
        <mxCell id="rlhBUZmAT8BfPZjBoUgw-59" value="Application layer" style="text;html=1;align=center;verticalAlign=middle;whiteSpace=wrap;rounded=0;" vertex="1" parent="1">
          <mxGeometry x="827" y="90" width="60" height="30" as="geometry" />
        </mxCell>
        <mxCell id="rlhBUZmAT8BfPZjBoUgw-63" style="edgeStyle=orthogonalEdgeStyle;rounded=0;orthogonalLoop=1;jettySize=auto;html=1;" edge="1" parent="1" source="rlhBUZmAT8BfPZjBoUgw-60">
          <mxGeometry relative="1" as="geometry">
            <mxPoint x="1080" y="120" as="targetPoint" />
          </mxGeometry>
        </mxCell>
        <mxCell id="rlhBUZmAT8BfPZjBoUgw-60" value="Uart Rx" style="rounded=0;whiteSpace=wrap;html=1;" vertex="1" parent="1">
          <mxGeometry x="897" y="90" width="120" height="60" as="geometry" />
        </mxCell>
        <mxCell id="rlhBUZmAT8BfPZjBoUgw-62" style="edgeStyle=orthogonalEdgeStyle;rounded=0;orthogonalLoop=1;jettySize=auto;html=1;dashed=1;" edge="1" parent="1" source="rlhBUZmAT8BfPZjBoUgw-61">
          <mxGeometry relative="1" as="geometry">
            <mxPoint x="1080" y="120" as="targetPoint" />
            <Array as="points">
              <mxPoint x="1050" y="190" />
              <mxPoint x="1050" y="120" />
            </Array>
          </mxGeometry>
        </mxCell>
        <mxCell id="rlhBUZmAT8BfPZjBoUgw-61" value="PS/2 Rx" style="rounded=0;whiteSpace=wrap;html=1;dashed=1;" vertex="1" parent="1">
          <mxGeometry x="897" y="160" width="120" height="60" as="geometry" />
        </mxCell>
        <mxCell id="rlhBUZmAT8BfPZjBoUgw-67" style="edgeStyle=orthogonalEdgeStyle;rounded=0;orthogonalLoop=1;jettySize=auto;html=1;fillColor=#d5e8d4;strokeColor=#82b366;strokeWidth=2;" edge="1" parent="1" source="rlhBUZmAT8BfPZjBoUgw-64">
          <mxGeometry relative="1" as="geometry">
            <mxPoint x="1650" y="120" as="targetPoint" />
          </mxGeometry>
        </mxCell>
        <mxCell id="rlhBUZmAT8BfPZjBoUgw-64" value="Queue" style="rounded=0;whiteSpace=wrap;html=1;" vertex="1" parent="1">
          <mxGeometry x="1080" y="90" width="120" height="60" as="geometry" />
        </mxCell>
        <mxCell id="rlhBUZmAT8BfPZjBoUgw-66" style="edgeStyle=orthogonalEdgeStyle;rounded=0;orthogonalLoop=1;jettySize=auto;html=1;entryX=0;entryY=0.5;entryDx=0;entryDy=0;dashed=1;" edge="1" parent="1" source="rlhBUZmAT8BfPZjBoUgw-65" target="rlhBUZmAT8BfPZjBoUgw-64">
          <mxGeometry relative="1" as="geometry">
            <Array as="points">
              <mxPoint x="1050" y="260" />
              <mxPoint x="1050" y="120" />
            </Array>
          </mxGeometry>
        </mxCell>
        <mxCell id="rlhBUZmAT8BfPZjBoUgw-65" value="IR Rx" style="rounded=0;whiteSpace=wrap;html=1;dashed=1;" vertex="1" parent="1">
          <mxGeometry x="897" y="230" width="120" height="60" as="geometry" />
        </mxCell>
        <mxCell id="rlhBUZmAT8BfPZjBoUgw-68" value="Business logic layer" style="text;html=1;align=center;verticalAlign=middle;whiteSpace=wrap;rounded=0;" vertex="1" parent="1">
          <mxGeometry x="827" y="330" width="60" height="30" as="geometry" />
        </mxCell>
        <mxCell id="rlhBUZmAT8BfPZjBoUgw-71" value="" style="edgeStyle=orthogonalEdgeStyle;rounded=0;orthogonalLoop=1;jettySize=auto;html=1;" edge="1" parent="1" source="rlhBUZmAT8BfPZjBoUgw-69" target="rlhBUZmAT8BfPZjBoUgw-70">
          <mxGeometry relative="1" as="geometry" />
        </mxCell>
        <mxCell id="rlhBUZmAT8BfPZjBoUgw-69" value="Lexer" style="rounded=0;whiteSpace=wrap;html=1;" vertex="1" parent="1">
          <mxGeometry x="897" y="330" width="120" height="60" as="geometry" />
        </mxCell>
        <mxCell id="rlhBUZmAT8BfPZjBoUgw-74" value="" style="edgeStyle=orthogonalEdgeStyle;rounded=0;orthogonalLoop=1;jettySize=auto;html=1;" edge="1" parent="1" source="rlhBUZmAT8BfPZjBoUgw-70" target="rlhBUZmAT8BfPZjBoUgw-73">
          <mxGeometry relative="1" as="geometry" />
        </mxCell>
        <mxCell id="rlhBUZmAT8BfPZjBoUgw-70" value="Recursive Descent Parser" style="rounded=0;whiteSpace=wrap;html=1;" vertex="1" parent="1">
          <mxGeometry x="1067" y="330" width="120" height="60" as="geometry" />
        </mxCell>
        <mxCell id="rlhBUZmAT8BfPZjBoUgw-72" value="Tokens" style="text;html=1;align=center;verticalAlign=middle;whiteSpace=wrap;rounded=0;" vertex="1" parent="1">
          <mxGeometry x="1008" y="337" width="60" height="30" as="geometry" />
        </mxCell>
        <mxCell id="rlhBUZmAT8BfPZjBoUgw-78" style="edgeStyle=orthogonalEdgeStyle;rounded=0;orthogonalLoop=1;jettySize=auto;html=1;fillColor=#d5e8d4;strokeColor=#000000;entryX=0;entryY=0.5;entryDx=0;entryDy=0;" edge="1" parent="1" source="rlhBUZmAT8BfPZjBoUgw-73" target="rlhBUZmAT8BfPZjBoUgw-84">
          <mxGeometry relative="1" as="geometry">
            <mxPoint x="1650" y="360" as="targetPoint" />
          </mxGeometry>
        </mxCell>
        <mxCell id="rlhBUZmAT8BfPZjBoUgw-73" value="&lt;div style=&quot;text-align: left;&quot;&gt;&lt;font size=&quot;1&quot; face=&quot;Google Sans, arial, sans-serif&quot; color=&quot;#040c28&quot;&gt;&lt;span style=&quot;background-color: rgb(255, 255, 255); font-size: 12px;&quot;&gt;µOps&lt;/span&gt;&lt;/font&gt;&lt;/div&gt;" style="whiteSpace=wrap;html=1;rounded=0;" vertex="1" parent="1">
          <mxGeometry x="1247" y="330" width="120" height="60" as="geometry" />
        </mxCell>
        <mxCell id="rlhBUZmAT8BfPZjBoUgw-75" value="Parse&amp;nbsp;&lt;div&gt;tree&lt;/div&gt;" style="text;html=1;align=center;verticalAlign=middle;whiteSpace=wrap;rounded=0;" vertex="1" parent="1">
          <mxGeometry x="1187" y="330" width="60" height="30" as="geometry" />
        </mxCell>
        <mxCell id="rlhBUZmAT8BfPZjBoUgw-80" value="List of micro operations" style="text;html=1;align=center;verticalAlign=middle;whiteSpace=wrap;rounded=0;" vertex="1" parent="1">
          <mxGeometry x="1367" y="330" width="70" height="30" as="geometry" />
        </mxCell>
        <mxCell id="rlhBUZmAT8BfPZjBoUgw-81" value="" style="endArrow=none;html=1;rounded=0;" edge="1" parent="1">
          <mxGeometry width="50" height="50" relative="1" as="geometry">
            <mxPoint x="897" y="400" as="sourcePoint" />
            <mxPoint x="1658.6666666666667" y="400" as="targetPoint" />
          </mxGeometry>
        </mxCell>
        <mxCell id="rlhBUZmAT8BfPZjBoUgw-82" value="Low-level layer" style="text;html=1;align=center;verticalAlign=middle;whiteSpace=wrap;rounded=0;" vertex="1" parent="1">
          <mxGeometry x="827" y="410" width="60" height="30" as="geometry" />
        </mxCell>
        <mxCell id="rlhBUZmAT8BfPZjBoUgw-83" value="" style="rounded=0;whiteSpace=wrap;html=1;" vertex="1" parent="1">
          <mxGeometry x="897" y="410" width="120" height="60" as="geometry" />
        </mxCell>
        <mxCell id="rlhBUZmAT8BfPZjBoUgw-86" style="edgeStyle=orthogonalEdgeStyle;rounded=0;orthogonalLoop=1;jettySize=auto;html=1;fillColor=#d5e8d4;strokeColor=#82b366;strokeWidth=2;" edge="1" parent="1" source="rlhBUZmAT8BfPZjBoUgw-84">
          <mxGeometry relative="1" as="geometry">
            <mxPoint x="1650" y="360" as="targetPoint" />
          </mxGeometry>
        </mxCell>
        <mxCell id="rlhBUZmAT8BfPZjBoUgw-84" value="Execute&amp;nbsp;&lt;span style=&quot;color: rgb(4, 12, 40); font-family: &amp;quot;Google Sans&amp;quot;, arial, sans-serif; text-align: left; background-color: rgb(255, 255, 255);&quot;&gt;µOps&lt;/span&gt;" style="rounded=0;whiteSpace=wrap;html=1;" vertex="1" parent="1">
          <mxGeometry x="1440" y="330" width="120" height="60" as="geometry" />
        </mxCell>
        <mxCell id="rlhBUZmAT8BfPZjBoUgw-87" value="Output" style="rounded=0;whiteSpace=wrap;html=1;" vertex="1" parent="1">
          <mxGeometry x="1670" y="10" width="46" height="700" as="geometry" />
        </mxCell>
      </root>
    </mxGraphModel>
  </diagram>
</mxfile>
